<svg xmlns="http://www.w3.org/2000/svg" width="1200" height="400" viewBox="0 0 1200 400" fill="none">
  <defs>
    <linearGradient id="line" x1="0" y1="0" x2="1" y2="1">
      <stop offset="0%" stop-color="#2cb6ff" stop-opacity="0.45"/>
      <stop offset="100%" stop-color="#ffffff" stop-opacity="0.05"/>
    </linearGradient>
  </defs>
  <rect width="1200" height="400" fill="#071019"/>
  <g opacity="0.15" stroke="#8db4d9">
    <path d="M0 80H1200"/>
    <path d="M0 160H1200"/>
    <path d="M0 240H1200"/>
    <path d="M0 320H1200"/>
    <path d="M120 0V400"/>
    <path d="M240 0V400"/>
    <path d="M360 0V400"/>
    <path d="M480 0V400"/>
    <path d="M600 0V400"/>
    <path d="M720 0V400"/>
    <path d="M840 0V400"/>
    <path d="M960 0V400"/>
    <path d="M1080 0V400"/>
  </g>
  <path d="M72 294L171 264L252 286L336 232L423 248L502 191L588 203L666 150L754 170L834 116L922 136L1017 84L1128 104" stroke="url(#line)" stroke-width="4" stroke-linecap="round" stroke-linejoin="round"/>
  <g fill="#2cb6ff" opacity="0.35">
    <circle cx="171" cy="264" r="5"/>
    <circle cx="336" cy="232" r="5"/>
    <circle cx="502" cy="191" r="5"/>
    <circle cx="754" cy="170" r="5"/>
    <circle cx="1017" cy="84" r="5"/>
  </g>
</svg>
